<svg width="371" height="63" viewBox="0 0 371 63" fill="none" xmlns="http://www.w3.org/2000/svg">
<path d="M2.62184 46C2.62184 46 2.62184 36.8808 2.62184 18.6424C2.62184 18.6424 5.25574 18.6424 10.5235 18.6424C12.4643 18.6424 14.0012 18.8052 15.1344 19.1306C16.2675 19.4441 17.2861 20.0046 18.1902 20.8122C19.9863 22.4275 20.8843 24.6275 20.8843 27.412C20.8843 30.2087 19.8959 32.4026 17.9189 33.9938C17.3524 34.4518 16.7677 34.8195 16.165 35.0968C15.5743 35.362 14.7667 35.6272 13.7421 35.8923L21.1375 46H14.8812C14.8812 46 12.4884 42.5042 7.70279 35.5126C7.70279 35.5126 7.70279 39.0084 7.70279 46C7.70279 46 6.00914 46 2.62184 46ZM7.70279 31.6974C7.70279 31.6974 8.52852 31.6974 10.18 31.6974C12.1449 31.6974 13.5673 31.3719 14.4473 30.721C15.3272 30.058 15.7672 29.0032 15.7672 27.5567C15.7672 26.1463 15.3031 25.0855 14.3749 24.3743C13.6155 23.7837 12.1449 23.4883 9.963 23.4883H7.70279C7.70279 23.4883 7.70279 26.2247 7.70279 31.6974ZM38.1523 18.1542C40.0569 18.1542 41.8771 18.5279 43.613 19.2753C45.3488 20.0227 46.8436 21.0292 48.0972 22.2949C49.3509 23.5486 50.3454 25.0494 51.0807 26.7973C51.8281 28.5452 52.2018 30.3774 52.2018 32.2941C52.2018 34.922 51.581 37.3208 50.3394 39.4906C49.0977 41.6604 47.3981 43.3721 45.2403 44.6258C43.0826 45.8674 40.6958 46.4882 38.08 46.4882C36.1031 46.4882 34.2226 46.1205 32.4385 45.3852C30.6665 44.6499 29.1416 43.6554 27.8638 42.4017C26.5861 41.136 25.5675 39.6292 24.808 37.8813C24.0607 36.1214 23.687 34.271 23.687 32.3303C23.687 30.3654 24.0607 28.509 24.808 26.7611C25.5554 25.0012 26.568 23.4944 27.8458 22.2407C29.1235 20.987 30.6544 19.9925 32.4385 19.2572C34.2346 18.5219 36.1392 18.1542 38.1523 18.1542ZM37.8268 23.0363C35.3316 23.0363 33.1979 23.9404 31.4259 25.7485C29.666 27.5446 28.786 29.7265 28.786 32.2941C28.786 33.5839 29.0271 34.8014 29.5093 35.9466C29.9915 37.0918 30.6424 38.0802 31.4621 38.912C32.2818 39.7317 33.2642 40.3826 34.4094 40.8648C35.5546 41.347 36.7661 41.5881 38.0438 41.5881C40.6355 41.5881 42.7872 40.7141 44.499 38.9662C46.2228 37.2183 47.0847 35.0184 47.0847 32.3664C47.0847 29.6783 46.2047 27.4542 44.4447 25.6943C42.6968 23.9223 40.4909 23.0363 37.8268 23.0363ZM54.2269 38.1887C54.2269 38.1887 55.9929 38.1887 59.5248 38.1887C59.7418 40.455 60.9774 41.5881 63.2316 41.5881C64.3285 41.5881 65.2145 41.2807 65.8896 40.6659C66.5767 40.0511 66.9202 39.2495 66.9202 38.261C66.9202 37.0435 66.4682 36.0912 65.5641 35.4041C65.1543 35.1028 64.7263 34.8557 64.2803 34.6628C63.8464 34.4699 62.7313 34.042 60.9352 33.379C59.0909 32.6919 57.6745 31.7095 56.686 30.4317C55.7096 29.1539 55.2214 27.6531 55.2214 25.9294C55.2214 23.7596 55.9929 21.9212 57.5359 20.4144C59.0788 18.9076 60.9653 18.1542 63.1954 18.1542C64.5094 18.1542 65.7449 18.4315 66.9022 18.986C68.0594 19.5284 69.0057 20.2879 69.741 21.2643C70.2352 21.9393 70.6029 22.6385 70.844 23.3618C71.0971 24.073 71.2478 24.9288 71.296 25.9294H66.0342C65.9619 25.0132 65.6726 24.302 65.1663 23.7957C64.66 23.2894 63.985 23.0363 63.1412 23.0363C62.3094 23.0363 61.6344 23.2955 61.116 23.8138C60.5977 24.3321 60.3385 25.0012 60.3385 25.8209C60.3385 26.8455 60.8689 27.6833 61.9297 28.3342C62.1587 28.4909 63.1472 28.8887 64.8951 29.5276C66.2572 30.0459 67.2337 30.4678 67.8243 30.7933C68.427 31.1067 68.9936 31.5106 69.524 32.0048C71.1514 33.4875 71.965 35.3861 71.965 37.7005C71.965 40.1717 71.1212 42.2571 69.4336 43.9568C67.758 45.6444 65.6907 46.4882 63.2316 46.4882C61.7248 46.4882 60.3204 46.1808 59.0186 45.566C57.7287 44.9513 56.686 44.0954 55.8904 42.9984C55.36 42.2752 54.9683 41.5519 54.7151 40.8286C54.462 40.1054 54.2992 39.2254 54.2269 38.1887ZM75.5633 46C75.5633 46 75.5633 36.8808 75.5633 18.6424C75.5633 18.6424 77.2569 18.6424 80.6442 18.6424C80.6442 18.6424 80.6442 26.1463 80.6442 41.1541C80.6442 41.1541 83.4348 41.1541 89.016 41.1541C89.016 41.1541 89.016 42.7694 89.016 46C89.016 46 84.5318 46 75.5633 46ZM104.295 18.1542C106.2 18.1542 108.02 18.5279 109.756 19.2753C111.492 20.0227 112.986 21.0292 114.24 22.2949C115.494 23.5486 116.488 25.0494 117.223 26.7973C117.971 28.5452 118.344 30.3774 118.344 32.2941C118.344 34.922 117.724 37.3208 116.482 39.4906C115.24 41.6604 113.541 43.3721 111.383 44.6258C109.225 45.8674 106.839 46.4882 104.223 46.4882C102.246 46.4882 100.365 46.1205 98.5812 45.3852C96.8092 44.6499 95.2843 43.6554 94.0066 42.4017C92.7288 41.136 91.7102 39.6292 90.9508 37.8813C90.2034 36.1214 89.8297 34.271 89.8297 32.3303C89.8297 30.3654 90.2034 28.509 90.9508 26.7611C91.6982 25.0012 92.7107 23.4944 93.9885 22.2407C95.2663 20.987 96.7972 19.9925 98.5812 19.2572C100.377 18.5219 102.282 18.1542 104.295 18.1542ZM103.97 23.0363C101.474 23.0363 99.3407 23.9404 97.5687 25.7485C95.8087 27.5446 94.9287 29.7265 94.9287 32.2941C94.9287 33.5839 95.1698 34.8014 95.652 35.9466C96.1342 37.0918 96.7851 38.0802 97.6048 38.912C98.4245 39.7317 99.407 40.3826 100.552 40.8648C101.697 41.347 102.909 41.5881 104.187 41.5881C106.778 41.5881 108.93 40.7141 110.642 38.9662C112.365 37.2183 113.227 35.0184 113.227 32.3664C113.227 29.6783 112.347 27.4542 110.587 25.6943C108.84 23.9223 106.634 23.0363 103.97 23.0363ZM132.285 36.7784C132.285 36.7784 132.285 35.1992 132.285 32.041C132.285 32.041 138.252 32.041 150.186 32.041C150.186 32.041 150.186 32.264 150.186 32.71C150.186 34.4699 149.843 36.1756 149.156 37.8271C148.481 39.4665 147.51 40.9432 146.245 42.2571C143.496 45.0778 140.042 46.4882 135.884 46.4882C133.81 46.4882 131.852 46.1205 130.007 45.3852C128.175 44.6499 126.596 43.6554 125.27 42.4017C123.956 41.136 122.913 39.6232 122.142 37.8633C121.382 36.1033 121.003 34.2349 121.003 32.2579C121.003 30.3172 121.376 28.4789 122.124 26.743C122.883 24.9951 123.902 23.4944 125.179 22.2407C126.457 20.987 127.982 19.9925 129.754 19.2572C131.538 18.5219 133.419 18.1542 135.396 18.1542C137.36 18.1542 139.259 18.5159 141.091 19.2391C142.924 19.9624 144.515 20.975 145.865 22.2769C147.227 23.5787 148.197 25.0434 148.776 26.6707H142.809C141.965 25.4894 140.898 24.5913 139.609 23.9765C138.319 23.3497 136.878 23.0363 135.287 23.0363C133.973 23.0363 132.738 23.2713 131.58 23.7415C130.435 24.1995 129.465 24.8565 128.669 25.7124C127.886 26.5441 127.259 27.5627 126.789 28.7682C126.331 29.9616 126.102 31.1489 126.102 32.3303C126.102 34.9581 127.012 37.1581 128.832 38.9301C130.652 40.7021 132.906 41.5881 135.594 41.5881C137.403 41.5881 139.006 41.1662 140.404 40.3224C141.802 39.4785 142.875 38.2972 143.623 36.7784H132.285ZM154.038 46C154.038 46 154.038 36.8808 154.038 18.6424C154.038 18.6424 155.731 18.6424 159.119 18.6424C159.119 18.6424 159.119 27.7616 159.119 46C159.119 46 157.425 46 154.038 46ZM162.464 38.1887C162.464 38.1887 164.23 38.1887 167.762 38.1887C167.979 40.455 169.214 41.5881 171.468 41.5881C172.565 41.5881 173.451 41.2807 174.126 40.6659C174.814 40.0511 175.157 39.2495 175.157 38.261C175.157 37.0435 174.705 36.0912 173.801 35.4041C173.391 35.1028 172.963 34.8557 172.517 34.6628C172.083 34.4699 170.968 34.042 169.172 33.379C167.328 32.6919 165.911 31.7095 164.923 30.4317C163.946 29.1539 163.458 27.6531 163.458 25.9294C163.458 23.7596 164.23 21.9212 165.773 20.4144C167.316 18.9076 169.202 18.1542 171.432 18.1542C172.746 18.1542 173.982 18.4315 175.139 18.986C176.296 19.5284 177.243 20.2879 177.978 21.2643C178.472 21.9393 178.84 22.6385 179.081 23.3618C179.334 24.073 179.485 24.9288 179.533 25.9294H174.271C174.199 25.0132 173.909 24.302 173.403 23.7957C172.897 23.2894 172.222 23.0363 171.378 23.0363C170.546 23.0363 169.871 23.2955 169.353 23.8138C168.835 24.3321 168.575 25.0012 168.575 25.8209C168.575 26.8455 169.106 27.6833 170.167 28.3342C170.396 28.4909 171.384 28.8887 173.132 29.5276C174.494 30.0459 175.471 30.4678 176.061 30.7933C176.664 31.1067 177.23 31.5106 177.761 32.0048C179.388 33.4875 180.202 35.3861 180.202 37.7005C180.202 40.1717 179.358 42.2571 177.67 43.9568C175.995 45.6444 173.928 46.4882 171.468 46.4882C169.962 46.4882 168.557 46.1808 167.255 45.566C165.966 44.9513 164.923 44.0954 164.127 42.9984C163.597 42.2752 163.205 41.5519 162.952 40.8286C162.699 40.1054 162.536 39.2254 162.464 38.1887ZM186.512 46C186.512 46 186.512 38.4961 186.512 23.4883C186.512 23.4883 184.819 23.4883 181.431 23.4883C181.431 23.4883 181.431 21.873 181.431 18.6424C181.431 18.6424 186.506 18.6424 196.656 18.6424C196.656 18.6424 196.656 20.2577 196.656 23.4883C196.656 23.4883 194.963 23.4883 191.575 23.4883C191.575 23.4883 191.575 30.9922 191.575 46C191.575 46 189.888 46 186.512 46ZM199.531 46C199.531 46 199.531 36.8808 199.531 18.6424C199.531 18.6424 201.225 18.6424 204.612 18.6424C204.612 18.6424 204.612 27.7616 204.612 46C204.612 46 202.918 46 199.531 46ZM229.655 38.3695C229.655 38.3695 231.644 38.3695 235.622 38.3695C234.549 40.8648 232.874 42.8417 230.595 44.3003C228.329 45.7589 225.792 46.4882 222.983 46.4882C221.669 46.4882 220.385 46.3194 219.132 45.9819C217.89 45.6444 216.745 45.1682 215.696 44.5535C214.647 43.9387 213.677 43.1973 212.785 42.3294C211.905 41.4494 211.158 40.4911 210.543 39.4544C209.928 38.4057 209.446 37.2666 209.096 36.037C208.759 34.7954 208.59 33.5237 208.59 32.2218C208.59 30.3172 208.964 28.4969 209.711 26.7611C210.459 25.0253 211.459 23.5305 212.713 22.2769C213.966 21.0232 215.461 20.0227 217.197 19.2753C218.933 18.5279 220.753 18.1542 222.658 18.1542C224.381 18.1542 226.039 18.4435 227.63 19.0222C229.233 19.5887 230.674 20.4084 231.952 21.4813C232.82 22.2286 233.519 22.964 234.049 23.6872C234.579 24.4105 235.104 25.3447 235.622 26.4899H229.945C229.016 25.2844 227.986 24.4105 226.853 23.868C225.719 23.3135 224.357 23.0363 222.766 23.0363C219.909 23.0363 217.637 24.0368 215.949 26.0378C215.25 26.8455 214.696 27.8038 214.286 28.9128C213.888 30.0218 213.689 31.1369 213.689 32.2579C213.689 33.9335 214.099 35.4885 214.919 36.923C215.738 38.3575 216.853 39.4966 218.264 40.3404C219.674 41.1722 221.211 41.5881 222.875 41.5881C224.189 41.5881 225.364 41.341 226.401 40.8467C227.449 40.3525 228.534 39.5268 229.655 38.3695Z" fill="white"/>
<path d="M264.085 29.5C264.085 29.5 262.784 26.4443 260.182 20.333C260.182 20.333 258.878 23.3887 256.271 29.5C256.271 29.5 255.9 29.5 255.157 29.5C255.157 29.5 256.641 26.0524 259.607 19.1572C259.607 19.1572 259.99 19.1572 260.756 19.1572C260.756 19.1572 262.239 22.6048 265.206 29.5C265.206 29.5 264.832 29.5 264.085 29.5ZM270.565 21.6592C271.307 21.6592 271.977 21.8346 272.574 22.1855C273.176 22.5319 273.645 23.0127 273.983 23.6279C274.324 24.2432 274.495 24.9313 274.495 25.6924C274.495 26.8408 274.126 27.7933 273.388 28.5498C272.65 29.3063 271.718 29.6846 270.592 29.6846C269.822 29.6846 269.125 29.5114 268.5 29.165C267.876 28.8187 267.386 28.3402 267.03 27.7295C266.68 27.1188 266.504 26.4352 266.504 25.6787C266.504 24.5166 266.887 23.5573 267.653 22.8008C268.418 22.0397 269.389 21.6592 270.565 21.6592ZM270.483 22.6094C269.644 22.6094 268.947 22.9033 268.391 23.4912C267.835 24.0745 267.557 24.8083 267.557 25.6924C267.557 26.5674 267.842 27.292 268.411 27.8662C268.981 28.4404 269.699 28.7275 270.565 28.7275C271.408 28.7275 272.098 28.445 272.636 27.8799C273.178 27.3102 273.449 26.5856 273.449 25.7061C273.449 24.8037 273.171 24.0632 272.615 23.4844C272.059 22.901 271.348 22.6094 270.483 22.6094ZM280.729 21.8438C280.729 21.8438 280.729 22.1559 280.729 22.7803C280.729 22.7803 279.77 22.7803 277.851 22.7803C277.851 22.7803 277.851 25.0202 277.851 29.5C277.851 29.5 277.505 29.5 276.812 29.5C276.812 29.5 276.812 26.9479 276.812 21.8438C276.812 21.8438 278.118 21.8438 280.729 21.8438ZM288.33 21.8438C288.33 21.8438 288.674 21.8438 289.362 21.8438C289.362 21.8438 289.362 24.3958 289.362 29.5C289.362 29.5 289.018 29.5 288.33 29.5C288.33 29.5 288.33 27.4378 288.33 23.3135C288.33 23.3135 286.776 25.3757 283.667 29.5C283.667 29.5 283.321 29.5 282.628 29.5C282.628 29.5 282.628 26.9479 282.628 21.8438C282.628 21.8438 282.975 21.8438 283.667 21.8438C283.667 21.8438 283.667 23.9059 283.667 28.0303C283.667 28.0303 285.221 25.9681 288.33 21.8438ZM298.425 27.2441C298.425 27.2441 298.817 27.2441 299.601 27.2441C299.382 27.6589 299.182 27.9847 299 28.2217C298.817 28.4541 298.599 28.666 298.343 28.8574C297.642 29.4089 296.81 29.6846 295.848 29.6846C295.074 29.6846 294.367 29.5091 293.729 29.1582C293.091 28.8027 292.59 28.3174 292.225 27.7021C291.861 27.0824 291.678 26.3988 291.678 25.6514C291.678 24.9176 291.858 24.2454 292.218 23.6348C292.583 23.0241 293.08 22.5433 293.709 22.1924C294.338 21.8369 295.028 21.6592 295.78 21.6592C296.646 21.6592 297.418 21.8848 298.097 22.3359C298.781 22.7871 299.278 23.3978 299.588 24.168H298.425C298.129 23.6667 297.753 23.2816 297.298 23.0127C296.842 22.7438 296.331 22.6094 295.766 22.6094C294.914 22.6094 294.194 22.9056 293.606 23.498C293.023 24.0905 292.731 24.8174 292.731 25.6787C292.731 26.5309 293.027 27.2533 293.62 27.8457C294.217 28.4336 294.946 28.7275 295.807 28.7275C296.354 28.7275 296.826 28.6136 297.222 28.3857C297.623 28.1579 298.024 27.7773 298.425 27.2441ZM305.944 22.7803C305.944 22.7803 305.281 22.7803 303.955 22.7803C303.955 22.7803 303.955 25.0202 303.955 29.5C303.955 29.5 303.609 29.5 302.916 29.5C302.916 29.5 302.916 27.2601 302.916 22.7803C302.916 22.7803 302.246 22.7803 300.906 22.7803C300.906 22.7803 300.906 22.4681 300.906 21.8438C300.906 21.8438 302.585 21.8438 305.944 21.8438C305.944 21.8438 305.944 22.1559 305.944 22.7803ZM313.531 21.8438C313.531 21.8438 313.875 21.8438 314.563 21.8438C314.563 21.8438 314.563 24.3958 314.563 29.5C314.563 29.5 314.219 29.5 313.531 29.5C313.531 29.5 313.531 27.4378 313.531 23.3135C313.531 23.3135 311.977 25.3757 308.869 29.5C308.869 29.5 308.523 29.5 307.83 29.5C307.83 29.5 307.83 26.9479 307.83 21.8438C307.83 21.8438 308.176 21.8438 308.869 21.8438C308.869 21.8438 308.869 23.9059 308.869 28.0303C308.869 28.0303 310.423 25.9681 313.531 21.8438ZM322.732 21.8438C322.732 21.8438 322.732 24.3958 322.732 29.5C322.732 29.5 322.387 29.5 321.699 29.5C321.699 29.5 321.699 28.4837 321.699 26.4512C320.925 26.5423 320.12 26.5879 319.286 26.5879C319.036 26.5879 318.769 26.5492 318.486 26.4717C318.204 26.3896 317.976 26.2848 317.803 26.1572C317.215 25.7516 316.921 25.0885 316.921 24.168V21.8438C316.921 21.8438 317.267 21.8438 317.96 21.8438C317.96 21.8438 317.96 22.6185 317.96 24.168C317.96 24.4733 317.99 24.7171 318.049 24.8994C318.113 25.0817 318.229 25.2321 318.398 25.3506C318.566 25.4645 318.783 25.5443 319.047 25.5898C319.316 25.6309 319.671 25.6514 320.113 25.6514C320.519 25.6514 321.048 25.6081 321.699 25.5215V21.8438H322.732ZM333.012 26.0137C333.012 26.0137 330.704 26.0137 326.087 26.0137C326.128 26.7702 326.438 27.4128 327.017 27.9414C327.596 28.4655 328.279 28.7275 329.068 28.7275C329.651 28.7275 330.189 28.568 330.681 28.249C331.173 27.9255 331.526 27.5016 331.741 26.9775H332.821C332.538 27.7842 332.055 28.4382 331.371 28.9395C330.688 29.4362 329.929 29.6846 329.095 29.6846C328.539 29.6846 328.01 29.5798 327.509 29.3701C327.008 29.1605 326.577 28.8757 326.217 28.5156C325.857 28.1556 325.572 27.7249 325.363 27.2236C325.153 26.7223 325.048 26.1937 325.048 25.6377C325.048 24.9085 325.224 24.2386 325.574 23.6279C325.925 23.0173 326.404 22.5365 327.01 22.1855C327.616 21.8346 328.284 21.6592 329.013 21.6592C329.769 21.6592 330.464 21.846 331.098 22.2197C331.736 22.5934 332.221 23.1016 332.554 23.7441C332.723 24.0677 332.841 24.4004 332.909 24.7422C332.978 25.0794 333.012 25.5033 333.012 26.0137ZM326.115 25.0771H331.98C331.807 24.3161 331.453 23.7145 330.92 23.2725C330.392 22.8304 329.756 22.6094 329.013 22.6094C328.288 22.6094 327.659 22.8372 327.126 23.293C326.593 23.7441 326.256 24.3389 326.115 25.0771ZM341.741 27.2441C341.741 27.2441 342.133 27.2441 342.916 27.2441C342.698 27.6589 342.497 27.9847 342.315 28.2217C342.133 28.4541 341.914 28.666 341.659 28.8574C340.957 29.4089 340.125 29.6846 339.164 29.6846C338.389 29.6846 337.682 29.5091 337.044 29.1582C336.406 28.8027 335.905 28.3174 335.54 27.7021C335.176 27.0824 334.994 26.3988 334.994 25.6514C334.994 24.9176 335.174 24.2454 335.534 23.6348C335.898 23.0241 336.395 22.5433 337.024 22.1924C337.653 21.8369 338.343 21.6592 339.095 21.6592C339.961 21.6592 340.734 21.8848 341.413 22.3359C342.096 22.7871 342.593 23.3978 342.903 24.168H341.741C341.444 23.6667 341.068 23.2816 340.613 23.0127C340.157 22.7438 339.647 22.6094 339.081 22.6094C338.229 22.6094 337.509 22.9056 336.921 23.498C336.338 24.0905 336.046 24.8174 336.046 25.6787C336.046 26.5309 336.343 27.2533 336.935 27.8457C337.532 28.4336 338.261 28.7275 339.122 28.7275C339.669 28.7275 340.141 28.6136 340.538 28.3857C340.939 28.1579 341.34 27.7773 341.741 27.2441ZM345.192 21.8438C345.192 21.8438 345.538 21.8438 346.231 21.8438C346.231 21.8438 346.231 22.9808 346.231 25.2549C346.231 25.2549 347.398 24.1178 349.731 21.8438C349.731 21.8438 350.178 21.8438 351.071 21.8438C351.071 21.8438 349.797 23.0788 347.25 25.5488C347.25 25.5488 348.523 26.8659 351.071 29.5C351.071 29.5 350.62 29.5 349.717 29.5C349.717 29.5 348.555 28.2969 346.231 25.8906C346.231 25.8906 346.231 27.0938 346.231 29.5C346.231 29.5 345.885 29.5 345.192 29.5C345.192 29.5 345.192 26.9479 345.192 21.8438ZM360.408 21.8438C360.408 21.8438 360.408 24.3958 360.408 29.5C360.408 29.5 360.062 29.5 359.369 29.5C359.369 29.5 359.369 29.0511 359.369 28.1533C358.963 28.7002 358.533 29.0921 358.077 29.3291C357.626 29.5661 357.077 29.6846 356.429 29.6846C355.65 29.6846 354.946 29.5137 354.317 29.1719C353.693 28.8255 353.203 28.3493 352.847 27.7432C352.492 27.1325 352.314 26.4489 352.314 25.6924C352.314 24.9359 352.49 24.25 352.841 23.6348C353.191 23.0195 353.675 22.5365 354.29 22.1855C354.905 21.8346 355.591 21.6592 356.347 21.6592C357.017 21.6592 357.592 21.7822 358.07 22.0283C358.553 22.2699 358.986 22.6595 359.369 23.1973V21.8438H360.408ZM356.334 22.6094C355.513 22.6094 354.814 22.9056 354.235 23.498C353.656 24.0905 353.367 24.8083 353.367 25.6514C353.367 26.5127 353.663 27.2419 354.256 27.8389C354.848 28.4313 355.568 28.7275 356.416 28.7275C357.25 28.7275 357.949 28.4336 358.514 27.8457C359.084 27.2533 359.369 26.5218 359.369 25.6514C359.369 24.7809 359.08 24.0563 358.501 23.4775C357.922 22.8988 357.2 22.6094 356.334 22.6094ZM367.277 25.4668C367.277 25.4668 367.277 24.5713 367.277 22.7803C367.277 22.7803 366.685 22.7803 365.5 22.7803C364.265 22.7803 363.647 23.2292 363.647 24.127C363.647 25.0202 364.265 25.4668 365.5 25.4668C365.5 25.4668 366.092 25.4668 367.277 25.4668ZM365.582 26.4033C365.582 26.4033 364.862 27.4355 363.422 29.5C363.422 29.5 363.03 29.5 362.246 29.5C362.246 29.5 362.984 28.4404 364.461 26.3213C363.882 26.1891 363.426 25.9271 363.094 25.5352C362.766 25.1387 362.601 24.6693 362.601 24.127C362.601 23.4661 362.841 22.9215 363.319 22.4932C363.802 22.0602 364.44 21.8438 365.233 21.8438H368.309V29.5C368.309 29.5 367.965 29.5 367.277 29.5C367.277 29.5 367.277 28.4678 367.277 26.4033C367.277 26.4033 366.712 26.4033 365.582 26.4033ZM255.882 37.8438C255.882 37.8438 256.228 37.8438 256.921 37.8438C256.921 37.8438 256.921 38.9808 256.921 41.2549C256.921 41.2549 258.088 40.1178 260.421 37.8438C260.421 37.8438 260.868 37.8438 261.761 37.8438C261.761 37.8438 260.487 39.0788 257.939 41.5488C257.939 41.5488 259.213 42.8659 261.761 45.5C261.761 45.5 261.31 45.5 260.407 45.5C260.407 45.5 259.245 44.2969 256.921 41.8906C256.921 41.8906 256.921 43.0938 256.921 45.5C256.921 45.5 256.575 45.5 255.882 45.5C255.882 45.5 255.882 42.9479 255.882 37.8438ZM267.065 37.6592C267.807 37.6592 268.477 37.8346 269.074 38.1855C269.676 38.5319 270.145 39.0127 270.483 39.6279C270.824 40.2432 270.995 40.9313 270.995 41.6924C270.995 42.8408 270.626 43.7933 269.888 44.5498C269.15 45.3063 268.218 45.6846 267.092 45.6846C266.322 45.6846 265.625 45.5114 265 45.165C264.376 44.8187 263.886 44.3402 263.53 43.7295C263.18 43.1188 263.004 42.4352 263.004 41.6787C263.004 40.5166 263.387 39.5573 264.153 38.8008C264.918 38.0397 265.889 37.6592 267.065 37.6592ZM266.983 38.6094C266.144 38.6094 265.447 38.9033 264.891 39.4912C264.335 40.0745 264.057 40.8083 264.057 41.6924C264.057 42.5674 264.342 43.292 264.911 43.8662C265.481 44.4404 266.199 44.7275 267.065 44.7275C267.908 44.7275 268.598 44.445 269.136 43.8799C269.678 43.3102 269.949 42.5856 269.949 41.7061C269.949 40.8037 269.671 40.0632 269.115 39.4844C268.559 38.901 267.848 38.6094 266.983 38.6094ZM273.312 45.5C273.312 45.5 273.312 42.9479 273.312 37.8438C273.312 37.8438 273.85 37.8438 274.925 37.8438C274.925 37.8438 275.816 39.915 277.598 44.0576C277.598 44.0576 278.489 41.9863 280.271 37.8438C280.271 37.8438 280.806 37.8438 281.877 37.8438C281.877 37.8438 281.877 40.3958 281.877 45.5C281.877 45.5 281.533 45.5 280.845 45.5C280.845 45.5 280.845 43.3262 280.845 38.9785C280.845 38.9785 279.911 41.1523 278.042 45.5C278.042 45.5 277.744 45.5 277.147 45.5C277.147 45.5 276.215 43.3262 274.351 38.9785C274.351 38.9785 274.351 41.1523 274.351 45.5C274.351 45.5 274.005 45.5 273.312 45.5ZM291.084 45.5C291.084 45.5 290.738 45.5 290.045 45.5C290.045 45.5 290.045 43.2601 290.045 38.7803C290.045 38.7803 288.539 38.7803 285.527 38.7803C285.527 38.7803 285.527 41.0202 285.527 45.5C285.527 45.5 285.18 45.5 284.488 45.5C284.488 45.5 284.488 42.9479 284.488 37.8438C284.488 37.8438 286.687 37.8438 291.084 37.8438C291.084 37.8438 291.084 40.3958 291.084 45.5ZM301.481 37.8438C301.481 37.8438 301.481 40.3958 301.481 45.5C301.481 45.5 301.135 45.5 300.442 45.5C300.442 45.5 300.442 45.0511 300.442 44.1533C300.036 44.7002 299.606 45.0921 299.15 45.3291C298.699 45.5661 298.15 45.6846 297.503 45.6846C296.723 45.6846 296.019 45.5137 295.39 45.1719C294.766 44.8255 294.276 44.3493 293.921 43.7432C293.565 43.1325 293.387 42.4489 293.387 41.6924C293.387 40.9359 293.563 40.25 293.914 39.6348C294.265 39.0195 294.748 38.5365 295.363 38.1855C295.978 37.8346 296.664 37.6592 297.421 37.6592C298.09 37.6592 298.665 37.7822 299.143 38.0283C299.626 38.2699 300.059 38.6595 300.442 39.1973V37.8438H301.481ZM297.407 38.6094C296.587 38.6094 295.887 38.9056 295.308 39.498C294.729 40.0905 294.44 40.8083 294.44 41.6514C294.44 42.5127 294.736 43.2419 295.329 43.8389C295.921 44.4313 296.641 44.7275 297.489 44.7275C298.323 44.7275 299.022 44.4336 299.588 43.8457C300.157 43.2533 300.442 42.5218 300.442 41.6514C300.442 40.7809 300.153 40.0563 299.574 39.4775C298.995 38.8988 298.273 38.6094 297.407 38.6094ZM310.743 45.5C310.743 45.5 310.397 45.5 309.704 45.5C309.704 45.5 309.704 44.3561 309.704 42.0684C309.704 42.0684 308.175 42.0684 305.117 42.0684C305.117 42.0684 305.117 43.2122 305.117 45.5C305.117 45.5 304.771 45.5 304.078 45.5C304.078 45.5 304.078 42.9479 304.078 37.8438C304.078 37.8438 304.424 37.8438 305.117 37.8438C305.117 37.8438 305.117 38.9398 305.117 41.1318C305.117 41.1318 306.646 41.1318 309.704 41.1318C309.704 41.1318 309.704 40.0358 309.704 37.8438C309.704 37.8438 310.05 37.8438 310.743 37.8438C310.743 37.8438 310.743 40.3958 310.743 45.5ZM319.041 37.8438C319.041 37.8438 319.385 37.8438 320.073 37.8438C320.073 37.8438 320.073 40.3958 320.073 45.5C320.073 45.5 319.729 45.5 319.041 45.5C319.041 45.5 319.041 43.4378 319.041 39.3135C319.041 39.3135 317.487 41.3757 314.379 45.5C314.379 45.5 314.033 45.5 313.34 45.5C313.34 45.5 313.34 42.9479 313.34 37.8438C313.34 37.8438 313.686 37.8438 314.379 37.8438C314.379 37.8438 314.379 39.9059 314.379 44.0303C314.379 44.0303 315.933 41.9681 319.041 37.8438ZM326.956 41.4668C326.956 41.4668 326.956 40.5713 326.956 38.7803C326.956 38.7803 326.364 38.7803 325.179 38.7803C323.944 38.7803 323.326 39.2292 323.326 40.127C323.326 41.0202 323.944 41.4668 325.179 41.4668C325.179 41.4668 325.771 41.4668 326.956 41.4668ZM325.261 42.4033C325.261 42.4033 324.541 43.4355 323.101 45.5C323.101 45.5 322.709 45.5 321.925 45.5C321.925 45.5 322.663 44.4404 324.14 42.3213C323.561 42.1891 323.105 41.9271 322.773 41.5352C322.444 41.1387 322.28 40.6693 322.28 40.127C322.28 39.4661 322.52 38.9215 322.998 38.4932C323.481 38.0602 324.119 37.8438 324.912 37.8438H327.988V45.5C327.988 45.5 327.644 45.5 326.956 45.5C326.956 45.5 326.956 44.4678 326.956 42.4033C326.956 42.4033 326.391 42.4033 325.261 42.4033Z" fill="white"/>
</svg>
